<svg xmlns="http://www.w3.org/2000/svg" width="155.241" height="200" viewBox="0 0 155.241 200"><path d="M141.321,261.859a6.915,6.915,0,0,0-3.861,1.111L100.285,287.1l-3.744-5.763a6.934,6.934,0,0,0-9.507-2.019L54.182,300.647a6.936,6.936,0,0,0-2.024,9.507l3.739,5.763L18.721,340.054a6.936,6.936,0,0,0-2.024,9.507l9.73,14.986a6.934,6.934,0,0,0,9.507,2.019l18.775-12.185V454.989a6.933,6.933,0,0,0,6.874,6.869H163.977a6.933,6.933,0,0,0,6.874-6.869V338.157a6.933,6.933,0,0,0-6.874-6.869h-73.7l64.392-41.807a6.93,6.93,0,0,0,2.024-9.5l-9.73-14.991a6.9,6.9,0,0,0-5.641-3.13h-.005Zm-.117,6.874,9.73,14.986L76.807,331.841a3.436,3.436,0,0,0,1.872,6.316h85.3V454.989H61.583V348.049a3.437,3.437,0,0,0-5.306-2.882L32.19,360.8l-9.725-14.986,40.057-26a3.436,3.436,0,0,0,1.015-4.753l-5.616-8.649,32.858-21.327,5.611,8.644a3.437,3.437,0,0,0,4.753,1.015ZM79.74,352.59a4.768,4.768,0,0,0-4.271,2.942,8.794,8.794,0,0,0-.827,3.932v70.784a8.774,8.774,0,0,0,.827,3.927,4.768,4.768,0,0,0,4.271,2.942h6.98a4.767,4.767,0,0,0,4.271-2.942,8.773,8.773,0,0,0,.827-3.927V359.464a8.794,8.794,0,0,0-.827-3.932,4.768,4.768,0,0,0-4.271-2.942Zm29.55,0a4.768,4.768,0,0,0-4.272,2.942,8.8,8.8,0,0,0-.827,3.932v70.784a8.774,8.774,0,0,0,.827,3.927,4.768,4.768,0,0,0,4.272,2.942h6.98a4.767,4.767,0,0,0,4.271-2.942,8.773,8.773,0,0,0,.827-3.927V359.464a8.794,8.794,0,0,0-.827-3.932,4.768,4.768,0,0,0-4.271-2.942Zm29.55,0a4.768,4.768,0,0,0-4.271,2.942,8.794,8.794,0,0,0-.827,3.932v70.784a8.774,8.774,0,0,0,.827,3.927,4.768,4.768,0,0,0,4.271,2.942h6.98a4.768,4.768,0,0,0,4.271-2.942,8.777,8.777,0,0,0,.832-3.927V359.464a8.8,8.8,0,0,0-.832-3.932,4.768,4.768,0,0,0-4.271-2.942Zm-57.33,6.874h3.44v70.784H81.51Zm29.55,0h3.44v70.784h-3.44Zm29.555,0h3.434v70.784h-3.434Z" transform="translate(-15.61 -261.858)"/></svg>